<svg xmlns="http://www.w3.org/2000/svg" width="100%" height="100%" viewBox="0 0 1200 360" style="background:#0b0f19;font-family:-apple-system,BlinkMacSystemFont,'Segoe UI',Roboto,Helvetica,Arial,sans-serif"><defs><linearGradient id="bg-gradient" x1="0%" x2="100%" y1="0%" y2="100%"><stop offset="0%" stop-color="#0a0e1a"/><stop offset="50%" stop-color="#111827"/><stop offset="100%" stop-color="#1e1035"/></linearGradient><linearGradient id="title-gradient" x1="0%" x2="100%" y1="0%" y2="0%"><stop offset="0%" stop-color="#38bdf8"/><stop offset="50%" stop-color="#818cf8"/><stop offset="100%" stop-color="#c084fc"/></linearGradient><linearGradient id="card-grad-1" x1="0%" x2="100%" y1="0%" y2="100%"><stop offset="0%" stop-color="rgba(56, 189, 248, 0.15)"/><stop offset="100%" stop-color="rgba(129, 140, 248, 0.05)"/></linearGradient><linearGradient id="card-grad-2" x1="0%" x2="100%" y1="0%" y2="100%"><stop offset="0%" stop-color="rgba(192, 132, 252, 0.15)"/><stop offset="100%" stop-color="rgba(236, 72, 153, 0.05)"/></linearGradient><linearGradient id="pulse-line" x1="0%" x2="100%" y1="0%" y2="0%"><stop offset="0%" stop-color="transparent"/><stop offset="50%" stop-color="#38bdf8"/><stop offset="100%" stop-color="transparent"/></linearGradient><filter id="glow" width="140%" height="140%" x="-20%" y="-20%"><feGaussianBlur result="blur" stdDeviation="8"/><feComposite in="SourceGraphic" in2="blur" operator="over"/></filter><filter id="shadow"><feDropShadow dx="0" dy="4" flood-color="#000" flood-opacity=".6" stdDeviation="6"/></filter></defs><style>@keyframes pulseGlow{0%{opacity:.4;transform:scale(1)}50%{opacity:.8;transform:scale(1.05)}}@keyframes floatCard1{0%{transform:translateY(0)}50%{transform:translateY(-8px)}}@keyframes floatCard2{0%{transform:translateY(0)}50%{transform:translateY(8px)}}@keyframes dashMove{0%{stroke-dashoffset:200}}@keyframes barGrow{0%{height:24px;y:276px}50%{height:48px;y:252px}}.animated-orb-1{animation:pulseGlow 6s ease-in-out infinite;transform-origin:200px 100px}.animated-orb-2{animation:pulseGlow 8s ease-in-out infinite 1s;transform-origin:1000px 280px}.floating-card-1{animation:floatCard1 5s ease-in-out infinite}.floating-card-2{animation:floatCard2 6s ease-in-out infinite .5s}.flow-line{stroke-dasharray:8 8;animation:dashMove 4s linear infinite}.graph-bar-1{animation:barGrow 3s ease-in-out infinite}.graph-bar-2{animation:barGrow 3.5s ease-in-out infinite .4s}.graph-bar-3{animation:barGrow 2.8s ease-in-out infinite .8s}.banner-title{font-size:54px;font-weight:800;letter-spacing:-.02em;fill:url(#title-gradient)}.banner-subtitle{font-size:18px;font-weight:400;fill:#94a3b8;letter-spacing:.01em}.badge-text{font-size:12px;font-weight:600;fill:#38bdf8;letter-spacing:.05em}</style><rect width="1200" height="360" fill="url(#bg-gradient)" rx="16"/><rect width="1198" height="358" x="1" y="1" fill="none" stroke="rgba(255,255,255,0.08)" stroke-width="1" rx="15"/><circle cx="200" cy="80" r="140" fill="#38bdf8" class="animated-orb-1" filter="url(#glow)" opacity=".12"/><circle cx="1020" cy="280" r="160" fill="#c084fc" class="animated-orb-2" filter="url(#glow)" opacity=".12"/><path stroke="rgba(255,255,255,0.03)" stroke-width="1" d="M0 60 H1200 M0 120 H1200 M0 180 H1200 M0 240 H1200 M0 300 H1200"/><path stroke="rgba(255,255,255,0.03)" stroke-width="1" d="M150 0 V360 M300 0 V360 M450 0 V360 M600 0 V360 M750 0 V360 M900 0 V360 M1050 0 V360"/><g class="floating-card-1" opacity=".85"><rect width="260" height="130" x="880" y="50" fill="url(#card-grad-1)" stroke="rgba(56, 189, 248, 0.3)" stroke-width="1" filter="url(#shadow)" rx="12"/><text x="900" y="80" fill="#94a3b8" font-size="13" font-weight="600">MONTHLY RECURRING REVENUE</text><text x="900" y="115" fill="#f8fafc" font-size="28" font-weight="700">$148,250<tspan fill="#34d399" font-size="14"> +18.4%</tspan></text><path fill="none" stroke="#38bdf8" stroke-linecap="round" stroke-width="2.5" d="M900 150 L940 145 L980 148 L1020 135 L1060 138 L1100 125"/><circle cx="1100" cy="125" r="4" fill="#38bdf8" filter="url(#glow)"/></g><g class="floating-card-2" opacity=".85"><rect width="280" height="120" x="840" y="200" fill="url(#card-grad-2)" stroke="rgba(192, 132, 252, 0.3)" stroke-width="1" filter="url(#shadow)" rx="12"/><text x="860" y="228" fill="#94a3b8" font-size="13" font-weight="600">USAGE METERING (EVENTS/SEC)</text><text x="860" y="262" fill="#f8fafc" font-size="24" font-weight="700">12.4M <tspan fill="#c084fc" font-size="12">events</tspan></text><rect width="12" height="40" x="1030" y="252" fill="#818cf8" class="graph-bar-1" rx="3"/><rect width="12" height="50" x="1050" y="242" fill="#c084fc" class="graph-bar-2" rx="3"/><rect width="12" height="30" x="1070" y="262" fill="#f472b6" class="graph-bar-3" rx="3"/></g><path fill="none" stroke="rgba(56, 189, 248, 0.4)" stroke-width="1.5" d="M60 300 Q 250 330, 450 300 T 800 310" class="flow-line"/><g transform="translate(60, 280)"><rect width="140" height="28" x="0" y="0" fill="rgba(56, 189, 248, 0.1)" stroke="rgba(56, 189, 248, 0.3)" stroke-width="1" rx="14"/><circle cx="14" cy="14" r="4" fill="#38bdf8"/><text x="26" y="18" fill="#38bdf8" font-size="11" font-weight="600">USAGE METERING</text><rect width="165" height="28" x="152" y="0" fill="rgba(129, 140, 248, 0.1)" stroke="rgba(129, 140, 248, 0.3)" stroke-width="1" rx="14"/><circle cx="166" cy="14" r="4" fill="#818cf8"/><text x="178" y="18" fill="#818cf8" font-size="11" font-weight="600">SUBSCRIPTION ENGINE</text><rect width="160" height="28" x="329" y="0" fill="rgba(192, 132, 252, 0.1)" stroke="rgba(192, 132, 252, 0.3)" stroke-width="1" rx="14"/><circle cx="343" cy="14" r="4" fill="#c084fc"/><text x="355" y="18" fill="#c084fc" font-size="11" font-weight="600">REVENUE OPERATIONS</text></g><g filter="url(#shadow)" transform="translate(60, 110)"><rect width="210" height="26" x="0" y="-35" fill="rgba(56, 189, 248, 0.15)" stroke="rgba(56, 189, 248, 0.4)" stroke-width="1" rx="13"/><text x="14" y="-18" class="badge-text">BILLING &amp; REV-OPS STACK</text><text x="0" y="30" class="banner-title">Awesome Billing</text><text x="0" y="72" class="banner-subtitle">Curated List of SaaS Platforms &amp; Open-Source Billing Infrastructure</text><text x="0" y="96" fill="#64748b" font-size="14" font-weight="500">Subscription Management • Usage-Based Pricing • Invoicing • Metering Engines</text></g></svg>